<svg width="254" height="56" viewBox="0 0 254 56" fill="none" xmlns="http://www.w3.org/2000/svg">
<path d="M97.1873 44.0262H88.3477V19.293H97.253C99.7504 19.293 101.919 19.7818 103.727 20.7594C105.534 21.737 106.947 23.1708 107.9 24.9956C108.886 26.8531 109.346 29.0364 109.346 31.6107C109.346 34.1851 108.853 36.4009 107.867 38.2584C106.881 40.1158 105.501 41.517 103.661 42.5272C101.886 43.5374 99.7176 44.0262 97.1873 44.0262ZM93.6054 39.5293H96.9572C99.2904 39.5293 101.065 38.9101 102.281 37.6392C103.497 36.4009 104.088 34.3806 104.088 31.6107C104.088 28.8734 103.497 26.8857 102.281 25.6148C101.065 24.3765 99.2904 23.7573 96.9572 23.7573H93.6054V39.5293Z" fill="white"/>
<path d="M113.289 44.0268H107.637L116.246 19.3262H123.049L131.625 44.0268H125.973L124.133 38.3893H115.129L113.289 44.0268ZM116.476 34.316H122.818L119.762 24.9637H119.565L116.476 34.316Z" fill="white"/>
<path d="M153.247 31.6762C153.247 34.3809 152.722 36.6619 151.703 38.552C150.684 40.442 149.271 41.8758 147.53 42.886C145.755 43.8636 143.783 44.385 141.582 44.385C139.38 44.385 137.375 43.8962 135.634 42.886C133.859 41.8758 132.479 40.442 131.46 38.552C130.442 36.6619 129.916 34.3809 129.916 31.7088C129.916 29.0041 130.442 26.723 131.46 24.833C132.479 22.943 133.859 21.5092 135.634 20.499C137.408 19.5214 139.38 19 141.582 19C143.783 19 145.755 19.4888 147.53 20.499C149.304 21.4766 150.684 22.943 151.703 24.833C152.754 26.6579 153.247 28.9715 153.247 31.6762ZM147.924 31.6762C147.924 29.0693 147.332 27.0489 146.182 25.6803C145.032 24.3116 143.488 23.5947 141.582 23.5947C139.676 23.5947 138.131 24.279 136.981 25.6803C135.831 27.0815 135.24 29.0693 135.24 31.6762C135.24 34.2831 135.831 36.3035 136.981 37.6721C138.131 39.0408 139.676 39.7577 141.582 39.7577C143.488 39.7577 145.032 39.0734 146.182 37.6721C147.332 36.2709 147.924 34.2831 147.924 31.6762Z" fill="white"/>
<path d="M160.312 19.293H166.819L173.687 35.9121H173.983L180.851 19.293H187.324V44.0262H182.198V27.9284H182.001L175.56 43.8959H172.077L165.636 27.8633H165.439V44.0262H160.312V19.293Z" fill="white"/>
<path d="M194.982 44.352C193.208 44.352 191.729 43.8958 190.546 42.9508C189.363 42.0383 188.771 40.6371 188.771 38.8123C188.771 37.4436 189.1 36.3357 189.757 35.5536C190.415 34.7715 191.269 34.185 192.353 33.8265C193.405 33.468 194.555 33.2074 195.804 33.1096C197.414 32.9467 198.597 32.7837 199.287 32.5882C199.977 32.3927 200.339 32.0342 200.339 31.4151V31.3499C200.339 30.6004 200.108 29.9813 199.616 29.5902C199.123 29.1666 198.465 28.9711 197.578 28.9711C196.658 28.9711 195.902 29.1666 195.344 29.5902C194.785 29.9813 194.424 30.5027 194.259 31.1218L189.462 30.7308C189.823 29.0363 190.71 27.7002 192.123 26.7226C193.536 25.745 195.377 25.2236 197.611 25.2236C198.991 25.2236 200.306 25.4517 201.489 25.8754C202.704 26.299 203.657 26.9833 204.413 27.8957C205.169 28.8082 205.531 30.0139 205.531 31.4803V44.0261H200.601V41.4518H200.47C200.01 42.299 199.353 43.0159 198.433 43.5699C197.512 44.0913 196.362 44.352 194.982 44.352ZM196.461 40.8326C197.611 40.8326 198.531 40.5068 199.254 39.855C199.977 39.2033 200.339 38.3886 200.339 37.411V35.4558C200.141 35.5862 199.813 35.7165 199.386 35.8143C198.958 35.912 198.498 36.0098 198.038 36.075C197.545 36.1402 197.118 36.2053 196.757 36.2705C195.837 36.4008 195.114 36.6615 194.555 37.02C193.996 37.411 193.733 37.965 193.733 38.6819C193.733 39.3988 193.996 39.9202 194.522 40.2787C195.015 40.6371 195.672 40.8326 196.461 40.8326Z" fill="white"/>
<path d="M207.502 44.0262V19.293H212.694V32.4906H212.99L218.97 25.4518H224.918L217.985 33.4681L225.28 43.9936H219.2L214.074 36.5313L212.661 38.128V44.0262H207.502Z" fill="white"/>
<path d="M232.771 44.3852C230.865 44.3852 229.222 43.9941 227.809 43.2121C226.429 42.43 225.344 41.322 224.621 39.9208C223.865 38.487 223.504 36.7925 223.504 34.8373C223.504 32.9473 223.865 31.2528 224.621 29.819C225.377 28.3852 226.429 27.2446 227.776 26.4625C229.123 25.6479 230.733 25.2568 232.574 25.2568C234.217 25.2568 235.695 25.6153 237.043 26.2996C238.357 26.9839 239.409 28.0267 240.197 29.4279C240.986 30.8291 241.38 32.5562 241.38 34.6744V36.0756H228.663C228.663 37.4442 229.057 38.5522 229.813 39.3343C230.569 40.1163 231.621 40.54 232.902 40.54C233.757 40.54 234.512 40.3444 235.137 39.986C235.761 39.6275 236.221 39.0736 236.484 38.3892L241.282 38.7151C240.92 40.4422 240 41.8108 238.521 42.8536C237.01 43.8638 235.104 44.3852 232.771 44.3852ZM228.63 32.8821H236.484C236.484 31.7742 236.123 30.8617 235.4 30.1448C234.677 29.4279 233.789 29.0695 232.639 29.0695C231.489 29.0695 230.536 29.4279 229.813 30.1774C229.09 30.9269 228.696 31.8393 228.63 32.8821Z" fill="white"/>
<path d="M242.662 44.0261V25.4843H247.69V28.7104H247.887C248.216 27.5699 248.807 26.69 249.596 26.1035C250.384 25.5169 251.337 25.2236 252.356 25.2236C252.948 25.2236 253.473 25.2888 253.999 25.4192V29.9813C253.769 29.9161 253.408 29.8509 252.98 29.7858C252.553 29.7206 252.159 29.7206 251.797 29.7206C250.647 29.7206 249.694 30.079 248.971 30.7959C248.216 31.5129 247.854 32.4253 247.854 33.5658V44.0261H242.662Z" fill="white"/>
<path d="M1.00391 55.9035L25.8978 9.69295L47.8497 0L22.9558 46.2106L1.00391 55.9035Z" fill="url(#paint0_linear_78_89765)"/>
<path d="M25.834 45.3409L44.7469 10.2402L55.4804 20.8026L36.8261 55.9999L25.834 45.3409Z" fill="url(#paint1_linear_78_89765)"/>
<path d="M57.5806 21.8662L71.5794 26.9542L64.5962 39.7708L47.623 40.3504L57.5806 21.8662Z" fill="url(#paint2_linear_78_89765)"/>
<defs>
<linearGradient id="paint0_linear_78_89765" x1="1.05431" y1="55.8697" x2="73.0018" y2="-0.398606" gradientUnits="userSpaceOnUse">
<stop stop-color="#48D5FF"/>
<stop offset="1" stop-color="#1FA5FF"/>
</linearGradient>
<linearGradient id="paint1_linear_78_89765" x1="1.68072" y1="56.0252" x2="76.6215" y2="-0.411514" gradientUnits="userSpaceOnUse">
<stop stop-color="#48D5FF"/>
<stop offset="1" stop-color="#1FA5FF"/>
</linearGradient>
<linearGradient id="paint2_linear_78_89765" x1="1.36679" y1="55.7926" x2="74.0413" y2="0.734751" gradientUnits="userSpaceOnUse">
<stop stop-color="#48D5FF"/>
<stop offset="1" stop-color="#1FA5FF"/>
</linearGradient>
</defs>
</svg>
