<?xml version="1.0" encoding="utf-8"?>
<!-- Generator: Adobe Illustrator 26.0.3, SVG Export Plug-In . SVG Version: 6.00 Build 0)  -->
<svg version="1.0" id="katman_1" xmlns="http://www.w3.org/2000/svg" xmlns:xlink="http://www.w3.org/1999/xlink" x="0px" y="0px"
	 viewBox="0 0 600 450" style="enable-background:new 0 0 600 450;" xml:space="preserve">
<style type="text/css">
	.st0{fill:#2B2D42;}
	.st1{fill:url(#SVGID_1_);}
	.st2{fill:url(#SVGID_00000002381804401213165260000002949618673122325401_);}
	.st3{fill:url(#SVGID_00000026134312009476658700000007402484075470231170_);}
</style>
<path class="st0" d="M244.2,254.9h-16.3v-45.6h16.4c4.6,0,8.6,0.9,11.9,2.7c3.3,1.8,5.9,4.4,7.7,7.8c1.8,3.4,2.7,7.4,2.7,12.2
	s-0.9,8.8-2.7,12.2c-1.8,3.4-4.4,6-7.8,7.9C252.8,254,248.8,254.9,244.2,254.9z M237.6,246.6h6.2c4.3,0,7.6-1.1,9.8-3.5
	c2.2-2.3,3.3-6,3.3-11.1c0-5-1.1-8.7-3.3-11c-2.2-2.3-5.5-3.4-9.8-3.4h-6.2V246.6z"/>
<path class="st0" d="M273.9,254.9h-10.4l15.9-45.5h12.6l15.8,45.5h-10.4l-3.4-10.4h-16.6L273.9,254.9z M279.8,237h11.7l-5.6-17.2
	h-0.4L279.8,237z"/>
<path class="st0" d="M347.6,232.1c0,5-1,9.2-2.9,12.7c-1.9,3.5-4.5,6.1-7.7,8c-3.3,1.8-6.9,2.8-11,2.8c-4.1,0-7.8-0.9-11-2.8
	c-3.3-1.9-5.8-4.5-7.7-8c-1.9-3.5-2.9-7.7-2.9-12.6c0-5,1-9.2,2.9-12.7c1.9-3.5,4.4-6.1,7.7-8c3.3-1.8,6.9-2.8,11-2.8
	c4.1,0,7.7,0.9,11,2.8c3.3,1.8,5.8,4.5,7.7,8C346.7,222.9,347.6,227.2,347.6,232.1z M337.8,232.1c0-4.8-1.1-8.5-3.2-11
	c-2.1-2.5-5-3.8-8.5-3.8c-3.5,0-6.4,1.3-8.5,3.8c-2.1,2.6-3.2,6.2-3.2,11s1.1,8.5,3.2,11c2.1,2.5,5,3.8,8.5,3.8
	c3.5,0,6.4-1.3,8.5-3.8C336.7,240.6,337.8,236.9,337.8,232.1z"/>
<path class="st0" d="M360.7,209.3h12l12.7,30.6h0.5l12.7-30.6h11.9v45.6h-9.5v-29.7h-0.4l-11.9,29.4h-6.4l-11.9-29.5h-0.4v29.8h-9.5
	V209.3L360.7,209.3z"/>
<path class="st0" d="M424.7,255.5c-3.3,0-6-0.8-8.2-2.6c-2.2-1.7-3.3-4.3-3.3-7.6c0-2.5,0.6-4.6,1.8-6c1.2-1.4,2.8-2.5,4.8-3.2
	c1.9-0.7,4.1-1.1,6.4-1.3c3-0.3,5.2-0.6,6.4-1c1.3-0.4,1.9-1,1.9-2.2v-0.1c0-1.4-0.4-2.5-1.3-3.2c-0.9-0.8-2.1-1.1-3.8-1.1
	c-1.7,0-3.1,0.4-4.1,1.1c-1,0.7-1.7,1.7-2,2.8l-8.9-0.7c0.7-3.1,2.3-5.6,4.9-7.4c2.6-1.8,6-2.8,10.1-2.8c2.5,0,5,0.4,7.2,1.2
	c2.2,0.8,4,2,5.4,3.7c1.4,1.7,2.1,3.9,2.1,6.6v23.1h-9.1v-4.7h-0.2c-0.8,1.6-2.1,2.9-3.8,3.9C429.4,255,427.2,255.5,424.7,255.5z
	 M427.4,249c2.1,0,3.8-0.6,5.2-1.8c1.3-1.2,2-2.7,2-4.5v-3.6c-0.4,0.2-1,0.5-1.8,0.7c-0.8,0.2-1.6,0.4-2.5,0.5
	c-0.9,0.1-1.7,0.2-2.4,0.4c-1.7,0.2-3,0.7-4.1,1.4c-1,0.7-1.5,1.7-1.5,3.1c0,1.3,0.5,2.3,1.5,2.9C424.7,248.6,426,249,427.4,249z"/>
<path class="st0" d="M447.8,254.9v-45.6h9.6v24.3h0.5l11-13h11l-12.8,14.8l13.5,19.4h-11.2l-9.5-13.7l-2.6,2.9v10.9H447.8z"/>
<path class="st0" d="M494.4,255.6c-3.5,0-6.6-0.7-9.2-2.2c-2.5-1.4-4.6-3.5-5.9-6.1c-1.4-2.6-2.1-5.8-2.1-9.4c0-3.5,0.7-6.6,2.1-9.2
	c1.4-2.6,3.3-4.7,5.8-6.2c2.5-1.5,5.5-2.2,8.9-2.2c3,0,5.8,0.7,8.2,1.9c2.4,1.3,4.4,3.2,5.8,5.8c1.5,2.6,2.2,5.8,2.2,9.7v2.6h-23.5
	c0,2.5,0.7,4.6,2.1,6c1.4,1.4,3.3,2.2,5.7,2.2c1.6,0,3-0.4,4.1-1c1.2-0.7,2-1.7,2.5-2.9l8.9,0.6c-0.7,3.2-2.4,5.7-5.1,7.6
	C502.3,254.6,498.8,255.6,494.4,255.6z M486.8,234.4h14.5c0-2-0.7-3.7-2-5c-1.3-1.3-3-2-5.1-2c-2.1,0-3.9,0.7-5.2,2
	C487.6,230.8,486.9,232.4,486.8,234.4z"/>
<path class="st0" d="M512.7,254.9v-34.2h9.3v5.9h0.4c0.6-2.1,1.7-3.7,3.2-4.8c1.5-1.1,3.2-1.6,5.1-1.6c1.1,0,2.1,0.1,3,0.4v8.4
	c-0.4-0.1-1.1-0.2-1.9-0.4c-0.8-0.1-1.5-0.1-2.2-0.1c-2.1,0-3.9,0.7-5.2,2c-1.4,1.3-2.1,3-2.1,5.1v19.3H512.7z"/>
<linearGradient id="SVGID_1_" gradientUnits="userSpaceOnUse" x1="179.0188" y1="113.496" x2="311.6117" y2="217.4162" gradientTransform="matrix(1 0 0 -1 -120.9449 379.3622)">
	<stop  offset="0" style="stop-color:#64C7F0"/>
	<stop  offset="1" style="stop-color:#4A9CD6"/>
</linearGradient>
<path class="st1" d="M66.6,276.8l46-85.1l40.5-17.9l-46,85.1L66.6,276.8z"/>
<linearGradient id="SVGID_00000018925873693596109810000004961951129668369291_" gradientUnits="userSpaceOnUse" x1="194.7205" y1="94.5404" x2="332.8402" y2="198.7795" gradientTransform="matrix(1 0 0 -1 -120.9449 379.3622)">
	<stop  offset="0" style="stop-color:#64C7F0"/>
	<stop  offset="1" style="stop-color:#4A9CD6"/>
</linearGradient>
<path style="fill:url(#SVGID_00000018925873693596109810000004961951129668369291_);" d="M112.5,257.3l34.9-64.7l19.8,19.5
	l-34.4,64.8L112.5,257.3z"/>
<linearGradient id="SVGID_00000127023024383852339390000011202113574791761843_" gradientUnits="userSpaceOnUse" x1="206.3889" y1="78.8863" x2="340.3302" y2="180.5777" gradientTransform="matrix(1 0 0 -1 -120.9449 379.3622)">
	<stop  offset="0" style="stop-color:#64C7F0"/>
	<stop  offset="1" style="stop-color:#4A9CD6"/>
</linearGradient>
<path style="fill:url(#SVGID_00000127023024383852339390000011202113574791761843_);" d="M171.1,214.1l25.8,9.4L184,247.1l-31.3,1.1
	L171.1,214.1z"/>
</svg>
